/vscmnt/brussel_pixiu_data/_data_brussel/112/vsc11236/PredSimResults/SUBJ04opt3D/expIG/worker_04.mot
version=1
nRows=5
nColumns=50
inDegrees=yes
endheader
                time	         pelvis_tilt	         pelvis_list	     pelvis_rotation	           pelvis_tx	           pelvis_ty	           pelvis_tz	       hip_flexion_r	     hip_adduction_r	      hip_rotation_r	        knee_angle_r	       ankle_angle_r	         mtp_angle_r	       hip_flexion_l	     hip_adduction_l	      hip_rotation_l	        knee_angle_l	       ankle_angle_l	         mtp_angle_l	    lumbar_extension	      lumbar_bending	     lumbar_rotation	 ercspn_r/activation	 intobl_r/activation	 extobl_r/activation	    abd_r/activation	    add_r/activation	hamstrings_r/activation	bifemsh_r/activation	glut_max_r/activation	iliopsoas_r/activation	rect_fem_r/activation	  vasti_r/activation	gastroc_r/activation	 soleus_r/activation	tib_ant_r/activation	 ercspn_l/activation	 intobl_l/activation	 extobl_l/activation	    abd_l/activation	    add_l/activation	hamstrings_l/activation	bifemsh_l/activation	glut_max_l/activation	iliopsoas_l/activation	rect_fem_l/activation	  vasti_l/activation	gastroc_l/activation	 soleus_l/activation	tib_ant_l/activation	
          2.00035897	         -1.98152333	         -0.57138036	         -8.79871193	          1.80032308	          0.88361833	          0.01224324	        -11.97669776	         -0.29748955	         -8.08510535	         -7.74452386	         13.01375003	         19.73542253	         29.07584314	         -3.77183755	        -10.62251805	        -11.55727958	          3.94449031	          0.23017676	        -13.96519210	          3.88524284	          7.50105487	          0.01864953	          0.00999999	          0.00999999	          0.06296855	          0.01000000	          0.02863459	          0.18556322	          0.01773101	          0.01825968	          0.01000002	          0.00999999	          0.23900370	          0.24099528	          0.00999999	          0.03892066	          0.22265143	          0.02064454	          0.01222261	          0.25075188	          0.06329839	          0.01090205	          0.01488639	          0.17191873	          0.03878038	          0.03713522	          0.00999999	          0.00999999	          0.32657379	
          2.01369470	         -2.08885880	         -0.58409708	         -8.57465696	          1.81546831	          0.88142653	          0.01177650	        -12.66583575	         -0.39278728	         -8.74808918	         -8.18695973	         12.72243858	         21.13545212	         28.91178856	         -3.62967022	        -10.86399555	        -12.69008666	          3.75676492	          0.22508797	        -13.48429839	          3.33481801	          7.60410326	          0.02990161	          0.00999999	          0.00999999	          0.05151804	          0.01000002	          0.02342803	          0.15181950	          0.01452033	          0.01493925	          0.00999999	          0.01000000	          0.21836782	          0.23996686	          0.00999999	          0.03184313	          0.22201626	          0.01689044	          0.00999999	          0.25858457	          0.06601519	          0.01954758	          0.03274340	          0.14065619	          0.03172836	          0.03038237	          0.01825964	          0.01902668	          0.32907140	
          2.02703043	         -2.18168719	         -0.53800443	         -8.30704183	          1.83100133	          0.87938307	          0.01125232	        -13.30854122	         -0.55682983	         -9.44146767	         -8.77954670	         12.36096840	         22.56339383	         28.64473160	         -3.47947522	        -11.00092783	        -13.78863037	          3.43772425	          0.22243641	        -12.96713667	          2.69450346	          7.68193839	          0.03256098	          0.00999999	          0.00999999	          0.04214975	          0.00999999	          0.01916777	          0.12421190	          0.01187989	          0.01222263	          0.01000000	          0.00999999	          0.17865875	          0.22832275	          0.00999999	          0.02605263	          0.20899750	          0.01381900	          0.03118994	          0.22093005	          0.06504777	          0.01599298	          0.02678918	          0.11507858	          0.02595872	          0.05289295	          0.01493922	          0.01556677	          0.35757479	
          2.04036615	         -2.26062893	         -0.45373763	         -7.98433316	          1.84672677	          0.87767404	          0.01061807	        -13.83628593	         -0.77617239	        -10.17296525	         -9.62350485	         11.89018233	         24.01971101	         28.35355863	         -3.30780394	        -11.21913298	        -14.82671766	          3.00399685	          0.20426984	        -12.44491860	          1.99330225	          7.72739545	          0.04346918	          0.00999999	          0.00999999	          0.03448503	          0.01000000	          0.01568224	          0.10162460	          0.00999999	          0.01000002	          0.01000000	          0.01000000	          0.14617057	          0.21431017	          0.00999999	          0.02843206	          0.17099238	          0.01130608	          0.04709282	          0.21423797	          0.06697371	          0.01308476	          0.02191771	          0.09415213	          0.02123826	          0.11882020	          0.01222260	          0.01273604	          0.38400855	
          2.05370188	         -2.32603028	         -0.33153987	         -7.61594273	          1.86253465	          0.87647921	          0.00986451	        -14.18433059	         -1.06579529	        -10.93371202	        -10.81290785	         11.26181718	         25.52252992	         28.00879675	         -3.10505023	        -11.53591967	        -15.80616870	          2.69699779	          0.18261626	        -11.93267605	          1.23751639	          7.73956668	          0.05797175	          0.00999999	          0.00999999	          0.02821410	          0.01000000	          0.01283059	          0.08314469	          0.00999999	          0.01000000	          0.01000000	          0.01000000	          0.11959020	          0.18387979	          0.00999999	          0.03278894	          0.13989829	          0.00999999	          0.07561729	          0.18591280	          0.06708864	          0.01070539	          0.01793217	          0.07703105	          0.01737619	          0.17520615	          0.00999999	          0.01042005	          0.39518489	
